<mxfile host="app.diagrams.net" modified="2023-10-17T12:53:53.469Z" agent="Mozilla/5.0 (Windows NT 10.0; Win64; x64) AppleWebKit/537.36 (KHTML, like Gecko) Chrome/118.0.0.0 Safari/537.36" etag="s8rOTFbBel88fmYkNAlS" version="22.0.4" type="device">
  <diagram name="Page-1" id="e7e014a7-5840-1c2e-5031-d8a46d1fe8dd">
    <mxGraphModel dx="5569" dy="3056" grid="1" gridSize="10" guides="1" tooltips="1" connect="1" arrows="1" fold="1" page="1" pageScale="1" pageWidth="1169" pageHeight="826" background="none" math="0" shadow="0">
      <root>
        <mxCell id="0" />
        <mxCell id="1" parent="0" />
        <mxCell id="SyflD4wRQNZvbjh-Ypq2-5" value="Purchase Order" style="rounded=0;whiteSpace=wrap;html=1;" parent="1" vertex="1">
          <mxGeometry x="350" y="40" width="120" height="60" as="geometry" />
        </mxCell>
        <mxCell id="SyflD4wRQNZvbjh-Ypq2-14" value="slots Avalibility" style="rounded=1;whiteSpace=wrap;html=1;" parent="1" vertex="1">
          <mxGeometry x="350" y="252" width="120" height="60" as="geometry" />
        </mxCell>
        <mxCell id="SyflD4wRQNZvbjh-Ypq2-16" value="Plexaar Sale Order" style="rounded=1;whiteSpace=wrap;html=1;" parent="1" vertex="1">
          <mxGeometry x="740" y="1529" width="120" height="60" as="geometry" />
        </mxCell>
        <mxCell id="SyflD4wRQNZvbjh-Ypq2-17" value="Payment" style="rounded=1;whiteSpace=wrap;html=1;" parent="1" vertex="1">
          <mxGeometry x="350.0000000000001" y="560" width="120" height="60" as="geometry" />
        </mxCell>
        <mxCell id="SyflD4wRQNZvbjh-Ypq2-20" value="Booking" style="rounded=1;whiteSpace=wrap;html=1;" parent="1" vertex="1">
          <mxGeometry x="350" y="1429" width="120" height="60" as="geometry" />
        </mxCell>
        <mxCell id="SyflD4wRQNZvbjh-Ypq2-22" value="Invoice" style="rounded=1;whiteSpace=wrap;html=1;" parent="1" vertex="1">
          <mxGeometry x="350" y="1619" width="120" height="60" as="geometry" />
        </mxCell>
        <mxCell id="SyflD4wRQNZvbjh-Ypq2-24" value="Plexaar Booking" style="rounded=1;whiteSpace=wrap;html=1;" parent="1" vertex="1">
          <mxGeometry x="940" y="1630" width="120" height="60" as="geometry" />
        </mxCell>
        <mxCell id="SyflD4wRQNZvbjh-Ypq2-25" value="Plexaar Sales Order Action" style="rounded=1;whiteSpace=wrap;html=1;" parent="1" vertex="1">
          <mxGeometry x="940" y="1529" width="120" height="60" as="geometry" />
        </mxCell>
        <mxCell id="SyflD4wRQNZvbjh-Ypq2-27" value="Sales Order Action" style="rounded=1;whiteSpace=wrap;html=1;" parent="1" vertex="1">
          <mxGeometry x="350" y="1337" width="120" height="60" as="geometry" />
        </mxCell>
        <mxCell id="SyflD4wRQNZvbjh-Ypq2-49" value="" style="edgeStyle=elbowEdgeStyle;elbow=vertical;verticalAlign=bottom;endArrow=open;endSize=8;strokeColor=#FF0000;endFill=1;rounded=0;exitX=0.5;exitY=1;exitDx=0;exitDy=0;entryX=0.5;entryY=0;entryDx=0;entryDy=0;" parent="1" source="SyflD4wRQNZvbjh-Ypq2-25" target="SyflD4wRQNZvbjh-Ypq2-24" edge="1">
          <mxGeometry x="264.5" y="168" as="geometry">
            <mxPoint x="650" y="1779" as="targetPoint" />
            <mxPoint x="700" y="1769" as="sourcePoint" />
          </mxGeometry>
        </mxCell>
        <mxCell id="SyflD4wRQNZvbjh-Ypq2-54" value="Intial Purchase Order" style="rounded=1;whiteSpace=wrap;html=1;" parent="1" vertex="1">
          <mxGeometry x="350" y="140" width="120" height="60" as="geometry" />
        </mxCell>
        <mxCell id="SyflD4wRQNZvbjh-Ypq2-56" value="" style="edgeStyle=elbowEdgeStyle;elbow=vertical;verticalAlign=bottom;endArrow=open;endSize=8;strokeColor=#FF0000;endFill=1;rounded=0;exitX=0.5;exitY=1;exitDx=0;exitDy=0;" parent="1" target="vtjTlCgghnRF5awZLfUh-1" edge="1" source="SyflD4wRQNZvbjh-Ypq2-14">
          <mxGeometry x="264.5" y="168" as="geometry">
            <mxPoint x="409.88" y="323" as="targetPoint" />
            <mxPoint x="409.38" y="283" as="sourcePoint" />
          </mxGeometry>
        </mxCell>
        <mxCell id="SyflD4wRQNZvbjh-Ypq2-57" value="" style="edgeStyle=elbowEdgeStyle;elbow=vertical;verticalAlign=bottom;endArrow=open;endSize=8;strokeColor=#FF0000;endFill=1;rounded=0;entryX=0.5;entryY=0;entryDx=0;entryDy=0;" parent="1" edge="1" target="SyflD4wRQNZvbjh-Ypq2-14">
          <mxGeometry x="264.5" y="168" as="geometry">
            <mxPoint x="410" y="210" as="targetPoint" />
            <mxPoint x="409.38" y="190" as="sourcePoint" />
          </mxGeometry>
        </mxCell>
        <mxCell id="SyflD4wRQNZvbjh-Ypq2-58" value="" style="edgeStyle=elbowEdgeStyle;elbow=vertical;verticalAlign=bottom;endArrow=open;endSize=8;strokeColor=#FF0000;endFill=1;rounded=0;entryX=0.5;entryY=0;entryDx=0;entryDy=0;" parent="1" target="SyflD4wRQNZvbjh-Ypq2-54" edge="1">
          <mxGeometry x="264.5" y="168" as="geometry">
            <mxPoint x="409.88" y="140" as="targetPoint" />
            <mxPoint x="409.38" y="100" as="sourcePoint" />
          </mxGeometry>
        </mxCell>
        <mxCell id="SyflD4wRQNZvbjh-Ypq2-59" value="Produce" style="text;html=1;align=center;verticalAlign=middle;resizable=0;points=[];autosize=1;strokeColor=none;fillColor=none;" parent="1" vertex="1">
          <mxGeometry x="415" y="100" width="70" height="30" as="geometry" />
        </mxCell>
        <mxCell id="SyflD4wRQNZvbjh-Ypq2-60" value="Consume" style="text;html=1;align=center;verticalAlign=middle;resizable=0;points=[];autosize=1;strokeColor=none;fillColor=none;" parent="1" vertex="1">
          <mxGeometry x="415" y="210" width="70" height="30" as="geometry" />
        </mxCell>
        <mxCell id="SyflD4wRQNZvbjh-Ypq2-62" value="Plexaar Customer" style="rounded=1;whiteSpace=wrap;html=1;" parent="1" vertex="1">
          <mxGeometry x="940" y="1367" width="120" height="60" as="geometry" />
        </mxCell>
        <mxCell id="SyflD4wRQNZvbjh-Ypq2-63" value="Plexaar Invoice" style="rounded=1;whiteSpace=wrap;html=1;" parent="1" vertex="1">
          <mxGeometry x="940" y="1850" width="120" height="60" as="geometry" />
        </mxCell>
        <mxCell id="SyflD4wRQNZvbjh-Ypq2-64" value="Booking order Action" style="rounded=1;whiteSpace=wrap;html=1;" parent="1" vertex="1">
          <mxGeometry x="350" y="1530" width="120" height="60" as="geometry" />
        </mxCell>
        <mxCell id="SyflD4wRQNZvbjh-Ypq2-65" value="Sales_Order" style="rounded=1;whiteSpace=wrap;html=1;" parent="1" vertex="1">
          <mxGeometry x="350" y="1239" width="120" height="60" as="geometry" />
        </mxCell>
        <mxCell id="SyflD4wRQNZvbjh-Ypq2-66" value="Plexaar Booking Order Action" style="rounded=1;whiteSpace=wrap;html=1;" parent="1" vertex="1">
          <mxGeometry x="940" y="1730" width="120" height="60" as="geometry" />
        </mxCell>
        <mxCell id="SyflD4wRQNZvbjh-Ypq2-73" value="" style="edgeStyle=elbowEdgeStyle;elbow=vertical;verticalAlign=bottom;endArrow=open;endSize=8;strokeColor=#FF0000;endFill=1;rounded=0;entryX=0.5;entryY=0;entryDx=0;entryDy=0;exitX=0.5;exitY=1;exitDx=0;exitDy=0;" parent="1" source="SyflD4wRQNZvbjh-Ypq2-24" target="SyflD4wRQNZvbjh-Ypq2-66" edge="1">
          <mxGeometry x="264.5" y="168" as="geometry">
            <mxPoint x="845" y="1433" as="targetPoint" />
            <mxPoint x="915" y="1433" as="sourcePoint" />
            <Array as="points">
              <mxPoint x="995" y="1710" />
            </Array>
          </mxGeometry>
        </mxCell>
        <mxCell id="SyflD4wRQNZvbjh-Ypq2-74" value="" style="edgeStyle=elbowEdgeStyle;elbow=vertical;verticalAlign=bottom;endArrow=open;endSize=8;strokeColor=#FF0000;endFill=1;rounded=0;entryX=0;entryY=0.5;entryDx=0;entryDy=0;exitX=1;exitY=0.5;exitDx=0;exitDy=0;" parent="1" source="SyflD4wRQNZvbjh-Ypq2-16" target="SyflD4wRQNZvbjh-Ypq2-25" edge="1">
          <mxGeometry x="264.5" y="168" as="geometry">
            <mxPoint x="870" y="1449" as="targetPoint" />
            <mxPoint x="940" y="1449" as="sourcePoint" />
            <Array as="points">
              <mxPoint x="900" y="1559" />
            </Array>
          </mxGeometry>
        </mxCell>
        <mxCell id="SyflD4wRQNZvbjh-Ypq2-75" value="" style="edgeStyle=elbowEdgeStyle;elbow=vertical;verticalAlign=bottom;endArrow=open;endSize=8;strokeColor=#FF0000;endFill=1;rounded=0;entryX=0;entryY=0.5;entryDx=0;entryDy=0;exitX=1;exitY=0.5;exitDx=0;exitDy=0;" parent="1" source="SyflD4wRQNZvbjh-Ypq2-64" target="SyflD4wRQNZvbjh-Ypq2-16" edge="1">
          <mxGeometry x="264.5" y="168" as="geometry">
            <mxPoint x="575" y="1449" as="targetPoint" />
            <mxPoint x="645" y="1449" as="sourcePoint" />
            <Array as="points">
              <mxPoint x="610" y="1559" />
            </Array>
          </mxGeometry>
        </mxCell>
        <mxCell id="SyflD4wRQNZvbjh-Ypq2-76" value="" style="edgeStyle=elbowEdgeStyle;elbow=vertical;verticalAlign=bottom;endArrow=open;endSize=8;strokeColor=#FF0000;endFill=1;rounded=0;entryX=0.5;entryY=0;entryDx=0;entryDy=0;exitX=0.5;exitY=1;exitDx=0;exitDy=0;" parent="1" source="SyflD4wRQNZvbjh-Ypq2-64" target="SyflD4wRQNZvbjh-Ypq2-22" edge="1">
          <mxGeometry x="264.5" y="168" as="geometry">
            <mxPoint x="160" y="1619" as="targetPoint" />
            <mxPoint x="230" y="1619" as="sourcePoint" />
            <Array as="points">
              <mxPoint x="390" y="1609" />
            </Array>
          </mxGeometry>
        </mxCell>
        <mxCell id="SyflD4wRQNZvbjh-Ypq2-77" value="" style="edgeStyle=elbowEdgeStyle;elbow=vertical;verticalAlign=bottom;endArrow=open;endSize=8;strokeColor=#FF0000;endFill=1;rounded=0;entryX=0.5;entryY=0;entryDx=0;entryDy=0;exitX=0.5;exitY=1;exitDx=0;exitDy=0;" parent="1" source="SyflD4wRQNZvbjh-Ypq2-20" target="SyflD4wRQNZvbjh-Ypq2-64" edge="1">
          <mxGeometry x="264.5" y="168" as="geometry">
            <mxPoint x="130" y="1619" as="targetPoint" />
            <mxPoint x="200" y="1619" as="sourcePoint" />
            <Array as="points">
              <mxPoint x="430" y="1509" />
            </Array>
          </mxGeometry>
        </mxCell>
        <mxCell id="SyflD4wRQNZvbjh-Ypq2-78" value="" style="edgeStyle=elbowEdgeStyle;elbow=vertical;verticalAlign=bottom;endArrow=open;endSize=8;strokeColor=#FF0000;endFill=1;rounded=0;entryX=0.5;entryY=0;entryDx=0;entryDy=0;exitX=0.5;exitY=1;exitDx=0;exitDy=0;" parent="1" source="SyflD4wRQNZvbjh-Ypq2-27" target="SyflD4wRQNZvbjh-Ypq2-20" edge="1">
          <mxGeometry x="264.5" y="168" as="geometry">
            <mxPoint x="150" y="1299" as="targetPoint" />
            <mxPoint x="220" y="1299" as="sourcePoint" />
            <Array as="points" />
          </mxGeometry>
        </mxCell>
        <mxCell id="SyflD4wRQNZvbjh-Ypq2-79" value="" style="edgeStyle=elbowEdgeStyle;elbow=vertical;verticalAlign=bottom;endArrow=open;endSize=8;strokeColor=#FF0000;endFill=1;rounded=0;entryX=0.5;entryY=0;entryDx=0;entryDy=0;exitX=0.5;exitY=1;exitDx=0;exitDy=0;" parent="1" source="SyflD4wRQNZvbjh-Ypq2-65" target="SyflD4wRQNZvbjh-Ypq2-27" edge="1">
          <mxGeometry x="264.5" y="168" as="geometry">
            <mxPoint x="160" y="1309" as="targetPoint" />
            <mxPoint x="230" y="1309" as="sourcePoint" />
            <Array as="points" />
          </mxGeometry>
        </mxCell>
        <mxCell id="SyflD4wRQNZvbjh-Ypq2-85" value="Produce" style="text;html=1;align=center;verticalAlign=middle;resizable=0;points=[];autosize=1;strokeColor=none;fillColor=none;" parent="1" vertex="1">
          <mxGeometry x="405" y="1299" width="70" height="30" as="geometry" />
        </mxCell>
        <mxCell id="SyflD4wRQNZvbjh-Ypq2-86" value="Consume" style="text;html=1;align=center;verticalAlign=middle;resizable=0;points=[];autosize=1;strokeColor=none;fillColor=none;" parent="1" vertex="1">
          <mxGeometry x="415" y="1397" width="70" height="30" as="geometry" />
        </mxCell>
        <mxCell id="SyflD4wRQNZvbjh-Ypq2-87" value="Produce" style="text;html=1;align=center;verticalAlign=middle;resizable=0;points=[];autosize=1;strokeColor=none;fillColor=none;" parent="1" vertex="1">
          <mxGeometry x="415" y="1489" width="70" height="30" as="geometry" />
        </mxCell>
        <mxCell id="SyflD4wRQNZvbjh-Ypq2-88" value="Consume" style="text;html=1;align=center;verticalAlign=middle;resizable=0;points=[];autosize=1;strokeColor=none;fillColor=none;" parent="1" vertex="1">
          <mxGeometry x="415" y="1589" width="70" height="30" as="geometry" />
        </mxCell>
        <mxCell id="SyflD4wRQNZvbjh-Ypq2-89" value="Consume" style="text;html=1;align=center;verticalAlign=middle;resizable=0;points=[];autosize=1;strokeColor=none;fillColor=none;" parent="1" vertex="1">
          <mxGeometry x="559" y="1527" width="70" height="30" as="geometry" />
        </mxCell>
        <mxCell id="SyflD4wRQNZvbjh-Ypq2-90" value="Produce" style="text;html=1;align=center;verticalAlign=middle;resizable=0;points=[];autosize=1;strokeColor=none;fillColor=none;" parent="1" vertex="1">
          <mxGeometry x="860" y="1527" width="70" height="30" as="geometry" />
        </mxCell>
        <mxCell id="SyflD4wRQNZvbjh-Ypq2-92" value="Produce" style="text;html=1;align=center;verticalAlign=middle;resizable=0;points=[];autosize=1;strokeColor=none;fillColor=none;" parent="1" vertex="1">
          <mxGeometry x="990" y="1690" width="70" height="30" as="geometry" />
        </mxCell>
        <mxCell id="SyflD4wRQNZvbjh-Ypq2-98" value="" style="edgeStyle=elbowEdgeStyle;elbow=vertical;verticalAlign=bottom;endArrow=open;endSize=8;strokeColor=#FF0000;endFill=1;rounded=0;entryX=0.5;entryY=1;entryDx=0;entryDy=0;exitX=0.5;exitY=0;exitDx=0;exitDy=0;" parent="1" source="SyflD4wRQNZvbjh-Ypq2-25" target="SyflD4wRQNZvbjh-Ypq2-62" edge="1">
          <mxGeometry x="264.5" y="168" as="geometry">
            <mxPoint x="870" y="1464" as="targetPoint" />
            <mxPoint x="940" y="1464" as="sourcePoint" />
            <Array as="points">
              <mxPoint x="1000" y="1454" />
            </Array>
          </mxGeometry>
        </mxCell>
        <mxCell id="SyflD4wRQNZvbjh-Ypq2-99" value="" style="edgeStyle=elbowEdgeStyle;elbow=vertical;verticalAlign=bottom;endArrow=open;endSize=8;strokeColor=#FF0000;endFill=1;rounded=0;entryX=0.5;entryY=0;entryDx=0;entryDy=0;exitX=0.5;exitY=1;exitDx=0;exitDy=0;" parent="1" source="SyflD4wRQNZvbjh-Ypq2-66" target="SyflD4wRQNZvbjh-Ypq2-63" edge="1">
          <mxGeometry x="264.5" y="168" as="geometry">
            <mxPoint x="925" y="1553" as="targetPoint" />
            <mxPoint x="995" y="1553" as="sourcePoint" />
            <Array as="points" />
          </mxGeometry>
        </mxCell>
        <mxCell id="SyflD4wRQNZvbjh-Ypq2-100" value="Consume" style="text;html=1;align=center;verticalAlign=middle;resizable=0;points=[];autosize=1;strokeColor=none;fillColor=none;" parent="1" vertex="1">
          <mxGeometry x="1000" y="1800" width="70" height="30" as="geometry" />
        </mxCell>
        <mxCell id="SyflD4wRQNZvbjh-Ypq2-106" value="Pending Purchase Order" style="rounded=1;whiteSpace=wrap;html=1;" parent="1" vertex="1">
          <mxGeometry x="-340" y="358" width="180" height="60" as="geometry" />
        </mxCell>
        <mxCell id="vtjTlCgghnRF5awZLfUh-1" value="Captured Slot&amp;nbsp;&lt;br&gt;Status" style="rhombus;whiteSpace=wrap;html=1;" parent="1" vertex="1">
          <mxGeometry x="360" y="342" width="100" height="92" as="geometry" />
        </mxCell>
        <mxCell id="Ct7cLnX1y5oLwAJK4TMH-7" value="" style="edgeStyle=elbowEdgeStyle;elbow=vertical;verticalAlign=bottom;endArrow=open;endSize=8;strokeColor=#FF0000;endFill=1;rounded=0;exitX=0;exitY=0.5;exitDx=0;exitDy=0;entryX=1;entryY=0.5;entryDx=0;entryDy=0;" parent="1" source="vtjTlCgghnRF5awZLfUh-1" target="T-NyM37HnUl7jmyONF7y-9" edge="1">
          <mxGeometry x="264.5" y="168" as="geometry">
            <mxPoint x="300" y="380" as="targetPoint" />
            <mxPoint x="250" y="348" as="sourcePoint" />
          </mxGeometry>
        </mxCell>
        <mxCell id="Ct7cLnX1y5oLwAJK4TMH-8" value="" style="edgeStyle=elbowEdgeStyle;elbow=vertical;verticalAlign=bottom;endArrow=open;endSize=8;strokeColor=#FF0000;endFill=1;rounded=0;entryX=0.5;entryY=0;entryDx=0;entryDy=0;" parent="1" target="Ct7cLnX1y5oLwAJK4TMH-34" edge="1">
          <mxGeometry x="264.5" y="168" as="geometry">
            <mxPoint x="409.71" y="885" as="targetPoint" />
            <mxPoint x="409.09" y="820" as="sourcePoint" />
          </mxGeometry>
        </mxCell>
        <mxCell id="Ct7cLnX1y5oLwAJK4TMH-9" value="" style="edgeStyle=elbowEdgeStyle;elbow=vertical;verticalAlign=bottom;endArrow=open;endSize=8;strokeColor=#FF0000;endFill=1;rounded=0;entryX=0.5;entryY=0;entryDx=0;entryDy=0;" parent="1" edge="1" target="Ct7cLnX1y5oLwAJK4TMH-24" source="SyflD4wRQNZvbjh-Ypq2-11">
          <mxGeometry x="264.5" y="168" as="geometry">
            <mxPoint x="409.71" y="755" as="targetPoint" />
            <mxPoint x="409.09" y="690" as="sourcePoint" />
          </mxGeometry>
        </mxCell>
        <mxCell id="Ct7cLnX1y5oLwAJK4TMH-10" value="" style="edgeStyle=elbowEdgeStyle;elbow=vertical;verticalAlign=bottom;endArrow=open;endSize=8;strokeColor=#FF0000;endFill=1;rounded=0;exitX=0.5;exitY=1;exitDx=0;exitDy=0;entryX=0.5;entryY=0;entryDx=0;entryDy=0;" parent="1" edge="1" target="SyflD4wRQNZvbjh-Ypq2-11" source="SyflD4wRQNZvbjh-Ypq2-17">
          <mxGeometry x="264.5" y="168" as="geometry">
            <mxPoint x="410" y="630" as="targetPoint" />
            <mxPoint x="410" y="580" as="sourcePoint" />
          </mxGeometry>
        </mxCell>
        <mxCell id="Ct7cLnX1y5oLwAJK4TMH-11" value="" style="edgeStyle=elbowEdgeStyle;elbow=vertical;verticalAlign=bottom;endArrow=open;endSize=8;strokeColor=#FF0000;endFill=1;rounded=0;exitX=0;exitY=0.5;exitDx=0;exitDy=0;entryX=1;entryY=0.5;entryDx=0;entryDy=0;" parent="1" source="Ct7cLnX1y5oLwAJK4TMH-21" target="SyflD4wRQNZvbjh-Ypq2-106" edge="1">
          <mxGeometry x="264.5" y="168" as="geometry">
            <mxPoint x="110.62" y="493" as="targetPoint" />
            <mxPoint x="110" y="428" as="sourcePoint" />
          </mxGeometry>
        </mxCell>
        <mxCell id="Ct7cLnX1y5oLwAJK4TMH-12" value="" style="edgeStyle=elbowEdgeStyle;elbow=vertical;verticalAlign=bottom;endArrow=open;endSize=8;strokeColor=#FF0000;endFill=1;rounded=0;entryX=0.5;entryY=0;entryDx=0;entryDy=0;" parent="1" edge="1" target="T-NyM37HnUl7jmyONF7y-1">
          <mxGeometry x="264.5" y="168" as="geometry">
            <mxPoint x="409.71" y="499" as="targetPoint" />
            <mxPoint x="409.09" y="434" as="sourcePoint" />
            <Array as="points">
              <mxPoint x="399.09" y="444" />
            </Array>
          </mxGeometry>
        </mxCell>
        <mxCell id="Ct7cLnX1y5oLwAJK4TMH-16" value="Start" style="ellipse;whiteSpace=wrap;html=1;" parent="1" vertex="1">
          <mxGeometry x="350" y="-70" width="120" height="80" as="geometry" />
        </mxCell>
        <mxCell id="Ct7cLnX1y5oLwAJK4TMH-19" value="Purchase Order" style="shape=process;whiteSpace=wrap;html=1;backgroundOutline=1;" parent="1" vertex="1">
          <mxGeometry x="350" y="1000" width="120" height="60" as="geometry" />
        </mxCell>
        <mxCell id="Ct7cLnX1y5oLwAJK4TMH-21" value="Purchase Order" style="shape=process;whiteSpace=wrap;html=1;backgroundOutline=1;" parent="1" vertex="1">
          <mxGeometry x="-40" y="358" width="120" height="60" as="geometry" />
        </mxCell>
        <mxCell id="Ct7cLnX1y5oLwAJK4TMH-22" value="No" style="text;html=1;align=center;verticalAlign=middle;resizable=0;points=[];autosize=1;strokeColor=none;fillColor=none;" parent="1" vertex="1">
          <mxGeometry x="320" y="383" width="40" height="30" as="geometry" />
        </mxCell>
        <mxCell id="Ct7cLnX1y5oLwAJK4TMH-23" value="Yes" style="text;html=1;align=center;verticalAlign=middle;resizable=0;points=[];autosize=1;strokeColor=none;fillColor=none;" parent="1" vertex="1">
          <mxGeometry x="360" y="430" width="40" height="30" as="geometry" />
        </mxCell>
        <mxCell id="Ct7cLnX1y5oLwAJK4TMH-24" value="Purchase Order" style="shape=process;whiteSpace=wrap;html=1;backgroundOutline=1;" parent="1" vertex="1">
          <mxGeometry x="350" y="760" width="120" height="60" as="geometry" />
        </mxCell>
        <mxCell id="Ct7cLnX1y5oLwAJK4TMH-34" value="Payment Captured" style="rounded=1;whiteSpace=wrap;html=1;" parent="1" vertex="1">
          <mxGeometry x="350" y="890" width="120" height="60" as="geometry" />
        </mxCell>
        <mxCell id="Ct7cLnX1y5oLwAJK4TMH-35" value="Final Purchase Order" style="rounded=1;whiteSpace=wrap;html=1;" parent="1" vertex="1">
          <mxGeometry x="350" y="1130" width="120" height="60" as="geometry" />
        </mxCell>
        <mxCell id="Ct7cLnX1y5oLwAJK4TMH-39" value="" style="edgeStyle=elbowEdgeStyle;elbow=horizontal;verticalAlign=bottom;endArrow=open;endSize=8;strokeColor=#FF0000;endFill=1;rounded=0;entryX=0.5;entryY=0;entryDx=0;entryDy=0;" parent="1" target="SyflD4wRQNZvbjh-Ypq2-65" edge="1">
          <mxGeometry x="264.5" y="168" as="geometry">
            <mxPoint x="415" y="1240" as="targetPoint" />
            <mxPoint x="410" y="1190" as="sourcePoint" />
          </mxGeometry>
        </mxCell>
        <mxCell id="Ct7cLnX1y5oLwAJK4TMH-40" value="" style="edgeStyle=elbowEdgeStyle;elbow=vertical;verticalAlign=bottom;endArrow=open;endSize=8;strokeColor=#FF0000;endFill=1;rounded=0;entryX=0.5;entryY=0;entryDx=0;entryDy=0;exitX=0.5;exitY=1;exitDx=0;exitDy=0;" parent="1" source="Ct7cLnX1y5oLwAJK4TMH-16" target="SyflD4wRQNZvbjh-Ypq2-5" edge="1">
          <mxGeometry x="264.5" y="168" as="geometry">
            <mxPoint x="630.9100000000001" y="140" as="targetPoint" />
            <mxPoint x="620" y="20" as="sourcePoint" />
          </mxGeometry>
        </mxCell>
        <mxCell id="Ct7cLnX1y5oLwAJK4TMH-41" value="" style="edgeStyle=elbowEdgeStyle;elbow=vertical;verticalAlign=bottom;endArrow=open;endSize=8;strokeColor=#FF0000;endFill=1;rounded=0;entryX=0.5;entryY=0;entryDx=0;entryDy=0;" parent="1" edge="1">
          <mxGeometry x="264.5" y="168" as="geometry">
            <mxPoint x="410" y="1130" as="targetPoint" />
            <mxPoint x="409.09" y="1060" as="sourcePoint" />
          </mxGeometry>
        </mxCell>
        <mxCell id="Ct7cLnX1y5oLwAJK4TMH-42" value="" style="edgeStyle=elbowEdgeStyle;elbow=vertical;verticalAlign=bottom;endArrow=open;endSize=8;strokeColor=#FF0000;endFill=1;rounded=0;entryX=0.5;entryY=0;entryDx=0;entryDy=0;" parent="1" target="Ct7cLnX1y5oLwAJK4TMH-19" edge="1">
          <mxGeometry x="264.5" y="168" as="geometry">
            <mxPoint x="410" y="1020" as="targetPoint" />
            <mxPoint x="409.09" y="950" as="sourcePoint" />
          </mxGeometry>
        </mxCell>
        <mxCell id="Ct7cLnX1y5oLwAJK4TMH-45" value="Consume" style="text;html=1;align=center;verticalAlign=middle;resizable=0;points=[];autosize=1;strokeColor=none;fillColor=none;" parent="1" vertex="1">
          <mxGeometry x="1000" y="1459" width="70" height="30" as="geometry" />
        </mxCell>
        <mxCell id="Ct7cLnX1y5oLwAJK4TMH-46" value="Consume" style="text;html=1;align=center;verticalAlign=middle;resizable=0;points=[];autosize=1;strokeColor=none;fillColor=none;" parent="1" vertex="1">
          <mxGeometry x="1000" y="1590" width="70" height="30" as="geometry" />
        </mxCell>
        <mxCell id="Ct7cLnX1y5oLwAJK4TMH-49" value="Produce" style="text;html=1;align=center;verticalAlign=middle;resizable=0;points=[];autosize=1;strokeColor=none;fillColor=none;" parent="1" vertex="1">
          <mxGeometry x="415" y="620" width="70" height="30" as="geometry" />
        </mxCell>
        <mxCell id="Ct7cLnX1y5oLwAJK4TMH-50" value="Produce" style="text;html=1;align=center;verticalAlign=middle;resizable=0;points=[];autosize=1;strokeColor=none;fillColor=none;" parent="1" vertex="1">
          <mxGeometry x="-120" y="342" width="70" height="30" as="geometry" />
        </mxCell>
        <mxCell id="Ct7cLnX1y5oLwAJK4TMH-51" value="Produce" style="text;html=1;align=center;verticalAlign=middle;resizable=0;points=[];autosize=1;strokeColor=none;fillColor=none;" parent="1" vertex="1">
          <mxGeometry x="415" y="312" width="70" height="30" as="geometry" />
        </mxCell>
        <mxCell id="Ct7cLnX1y5oLwAJK4TMH-53" value="Produce" style="text;html=1;align=center;verticalAlign=middle;resizable=0;points=[];autosize=1;strokeColor=none;fillColor=none;" parent="1" vertex="1">
          <mxGeometry x="300" y="342" width="70" height="30" as="geometry" />
        </mxCell>
        <mxCell id="Ct7cLnX1y5oLwAJK4TMH-54" value="Consume" style="text;html=1;align=center;verticalAlign=middle;resizable=0;points=[];autosize=1;strokeColor=none;fillColor=none;" parent="1" vertex="1">
          <mxGeometry x="415" y="960" width="70" height="30" as="geometry" />
        </mxCell>
        <mxCell id="Ct7cLnX1y5oLwAJK4TMH-55" value="Consume" style="text;html=1;align=center;verticalAlign=middle;resizable=0;points=[];autosize=1;strokeColor=none;fillColor=none;" parent="1" vertex="1">
          <mxGeometry x="415" y="1200" width="70" height="30" as="geometry" />
        </mxCell>
        <mxCell id="Ct7cLnX1y5oLwAJK4TMH-56" value="Produce" style="text;html=1;align=center;verticalAlign=middle;resizable=0;points=[];autosize=1;strokeColor=none;fillColor=none;" parent="1" vertex="1">
          <mxGeometry x="415" y="418" width="70" height="30" as="geometry" />
        </mxCell>
        <mxCell id="Ct7cLnX1y5oLwAJK4TMH-57" value="Consume" style="text;html=1;align=center;verticalAlign=middle;resizable=0;points=[];autosize=1;strokeColor=none;fillColor=none;" parent="1" vertex="1">
          <mxGeometry x="415" y="710" width="70" height="30" as="geometry" />
        </mxCell>
        <mxCell id="Ct7cLnX1y5oLwAJK4TMH-59" value="Produce" style="text;html=1;align=center;verticalAlign=middle;resizable=0;points=[];autosize=1;strokeColor=none;fillColor=none;" parent="1" vertex="1">
          <mxGeometry x="410" y="1090" width="70" height="30" as="geometry" />
        </mxCell>
        <mxCell id="Ct7cLnX1y5oLwAJK4TMH-60" value="Produce" style="text;html=1;align=center;verticalAlign=middle;resizable=0;points=[];autosize=1;strokeColor=none;fillColor=none;" parent="1" vertex="1">
          <mxGeometry x="405" y="830" width="70" height="30" as="geometry" />
        </mxCell>
        <mxCell id="T-NyM37HnUl7jmyONF7y-1" value="Slot_Captured" style="rounded=1;whiteSpace=wrap;html=1;" vertex="1" parent="1">
          <mxGeometry x="350.0000000000001" y="460" width="120" height="60" as="geometry" />
        </mxCell>
        <mxCell id="T-NyM37HnUl7jmyONF7y-2" value="" style="edgeStyle=elbowEdgeStyle;elbow=vertical;verticalAlign=bottom;endArrow=open;endSize=8;strokeColor=#FF0000;endFill=1;rounded=0;entryX=0.5;entryY=0;entryDx=0;entryDy=0;exitX=0.5;exitY=1;exitDx=0;exitDy=0;" edge="1" parent="1" source="T-NyM37HnUl7jmyONF7y-1" target="SyflD4wRQNZvbjh-Ypq2-17">
          <mxGeometry x="264.5" y="168" as="geometry">
            <mxPoint x="150.91000000000003" y="620" as="targetPoint" />
            <mxPoint x="150" y="550" as="sourcePoint" />
          </mxGeometry>
        </mxCell>
        <mxCell id="T-NyM37HnUl7jmyONF7y-5" value="" style="edgeStyle=elbowEdgeStyle;elbow=vertical;verticalAlign=bottom;endArrow=open;endSize=8;strokeColor=#FF0000;endFill=1;rounded=0;entryX=1;entryY=0.5;entryDx=0;entryDy=0;exitX=0;exitY=0.5;exitDx=0;exitDy=0;" edge="1" parent="1" source="T-NyM37HnUl7jmyONF7y-9" target="Ct7cLnX1y5oLwAJK4TMH-21">
          <mxGeometry x="264.5" y="168" as="geometry">
            <mxPoint x="200.91000000000003" y="620" as="targetPoint" />
            <mxPoint x="200" y="550" as="sourcePoint" />
          </mxGeometry>
        </mxCell>
        <mxCell id="T-NyM37HnUl7jmyONF7y-7" value="Consume" style="text;html=1;align=center;verticalAlign=middle;resizable=0;points=[];autosize=1;strokeColor=none;fillColor=none;" vertex="1" parent="1">
          <mxGeometry x="415" y="530" width="70" height="30" as="geometry" />
        </mxCell>
        <mxCell id="T-NyM37HnUl7jmyONF7y-8" value="Consume" style="text;html=1;align=center;verticalAlign=middle;resizable=0;points=[];autosize=1;strokeColor=none;fillColor=none;" vertex="1" parent="1">
          <mxGeometry x="90" y="342" width="70" height="30" as="geometry" />
        </mxCell>
        <mxCell id="T-NyM37HnUl7jmyONF7y-9" value="Slot_UnCaptured" style="rounded=1;whiteSpace=wrap;html=1;" vertex="1" parent="1">
          <mxGeometry x="170.0000000000001" y="358" width="120" height="60" as="geometry" />
        </mxCell>
        <mxCell id="T-NyM37HnUl7jmyONF7y-14" value="" style="edgeStyle=elbowEdgeStyle;elbow=vertical;verticalAlign=bottom;endArrow=open;endSize=8;strokeColor=#FF0000;endFill=1;rounded=0" edge="1" parent="1" target="SyflD4wRQNZvbjh-Ypq2-11">
          <mxGeometry x="264.5" y="168" as="geometry">
            <mxPoint x="409.71" y="755" as="targetPoint" />
            <mxPoint x="409.09" y="690" as="sourcePoint" />
          </mxGeometry>
        </mxCell>
        <mxCell id="SyflD4wRQNZvbjh-Ypq2-11" value="Payment hold" style="rounded=1;whiteSpace=wrap;html=1;" parent="1" vertex="1">
          <mxGeometry x="350" y="650" width="120" height="60" as="geometry" />
        </mxCell>
      </root>
    </mxGraphModel>
  </diagram>
</mxfile>
